# xmcd
#
# Track frame offsets:
#	150
#	12042
#	21819
#	35519
#	50691
#	63079
#	74552
#	85230
#	99603
#	111456
#	123717
#	134225
#	149548
#	167440
#	174482
#	191685
#	207253
#	216618
#	232155
#	247946
#	259712
#	275580
#
# Disc length: 3857 seconds
#
# Revision: 2
# Processed by: cddbd v1.5.2PL0 Copyright (c) Steve Scherf et al.
# Submitted via: audiograbber 1.83.01
#
DISCID=590f0f16
DTITLE=Clyde McPhatter - Eight Classic Albums  [CD4)
DYEAR=2014
DGENRE=Oldies
TTITLE0=The Clock
TTITLE1=What'd I Say
TTITLE2=Raining In My Heart
TTITLE3=What Am I Living For
TTITLE4=Kansas City
TTITLE5=Honey Hush
TTITLE6=I'm Gonna Be A Wheel Someday
TTITLE7=Fever
TTITLE8=C.C. Rider
TTITLE9=The Bells
TTITLE10=Honest I Do
TTITLE11=Blues Stay Away From Me
TTITLE12=Harbour Lights
TTITLE13=Put Your Arms Around Me, Honey
TTITLE14=You Belong To Me
TTITLE15=Three Coins In The Fountain
TTITLE16=That's My Desire
TTITLE17=What Will I Tell My Heart
TTITLE18=When Did You Leave Heaven
TTITLE19=Answer Me My Love
TTITLE20=These Foolish Things (Remind Me Of You)
TTITLE21=Love Is A Many Splendored Thing
EXTD=
EXTT0=
EXTT1=
EXTT2=
EXTT3=
EXTT4=
EXTT5=
EXTT6=
EXTT7=
EXTT8=
EXTT9=
EXTT10=
EXTT11=
EXTT12=
EXTT13=
EXTT14=
EXTT15=
EXTT16=
EXTT17=
EXTT18=
EXTT19=
EXTT20=
EXTT21=
PLAYORDER=
